<?xml version="1.0" encoding="iso-8859-1"?>
<!-- Generator: Adobe Illustrator 19.0.0, SVG Export Plug-In . SVG Version: 6.00 Build 0)  -->
<svg xmlns="http://www.w3.org/2000/svg" xmlns:xlink="http://www.w3.org/1999/xlink" version="1.1" id="Layer_1" x="0px" y="0px" viewBox="0 0 512 512" style="enable-background:new 0 0 512 512;" xml:space="preserve">
<polygon style="fill:#ADACB2;" points="276.637,182.607 276.637,212.653 230.566,212.653 230.566,246.896 200.519,246.896   200.519,212.653 154.949,212.653 154.949,182.607 "/>
<polygon style="fill:#8A8791;" points="276.637,182.607 276.637,212.653 230.566,212.653 230.566,246.896 215.793,246.896   215.793,182.607 "/>
<polygon style="fill:#787780;" points="309.307,436.559 309.307,466.605 205.026,466.605 205.026,436.559 242.925,436.559   242.925,358.959 272.971,358.959 272.971,436.559 "/>
<polygon style="fill:#57555C;" points="309.307,436.559 309.307,466.605 257.948,466.605 257.948,358.959 272.971,358.959   272.971,436.559 "/>
<rect x="150.773" y="290.909" style="fill:#ADACB2;" width="214.351" height="83.068"/>
<rect x="257.948" y="290.909" style="fill:#8A8791;" width="107.175" height="83.068"/>
<polygon style="fill:#57555C;" points="365.123,246.897 335.077,246.897 335.077,144.923 262.864,117.084 273.671,89.048   365.123,124.305 "/>
<g>
	<path style="fill:#83C9FF;" d="M512,340.641c0,11.678-3.596,22.815-10.246,32.14c-1.783,2.484-3.786,4.847-5.989,7.051   l-23.797,23.807l-82.678-82.678H110.24L0,210.71l27.372-27.372c1.402-1.402,2.864-2.704,4.377-3.896   c19.75-15.644,48.625-14.342,66.863,3.896l48.545,48.535h279.011l69.597,69.577C506.231,311.916,512,325.838,512,340.641z"/>
	<path style="fill:#83C9FF;" d="M299.672,92.968c0,26.24-21.343,47.583-47.583,47.583c-26.23,0-47.573-21.343-47.573-47.583   c0-26.23,21.343-47.573,47.573-47.573C278.329,45.395,299.672,66.738,299.672,92.968z"/>
</g>
<g>
	<path style="fill:#00A5FF;" d="M299.672,92.968c0,26.24-21.343,47.583-47.583,47.583V45.395   C278.329,45.395,299.672,66.738,299.672,92.968z"/>
	<path style="fill:#00A5FF;" d="M501.754,372.78c-1.783,2.484-3.786,4.847-5.989,7.051l-23.797,23.807l-82.678-82.678H110.24   L0,210.71l27.372-27.372c1.402-1.402,2.864-2.704,4.377-3.896l106.675,99.594h267.413L501.754,372.78z"/>
</g>
<g>
</g>
<g>
</g>
<g>
</g>
<g>
</g>
<g>
</g>
<g>
</g>
<g>
</g>
<g>
</g>
<g>
</g>
<g>
</g>
<g>
</g>
<g>
</g>
<g>
</g>
<g>
</g>
<g>
</g>
</svg>
