<?xml version="1.0" encoding="iso-8859-1"?>
<!-- Generator: Adobe Illustrator 19.0.0, SVG Export Plug-In . SVG Version: 6.00 Build 0)  -->
<svg xmlns="http://www.w3.org/2000/svg" xmlns:xlink="http://www.w3.org/1999/xlink" version="1.1" id="Layer_1" x="0px" y="0px" viewBox="0 0 511.999 511.999" style="enable-background:new 0 0 511.999 511.999;" xml:space="preserve">
<path style="fill:#E0E0E3;" d="M455.83,255.839c-22.81,33.56-37.7,71.38-43.04,109.37c-0.3,2.11-0.59,4.26-0.87,6.46  c-5.16,39.98-12.75,72.07-22.56,95.37c-11.76,27.91-26.93,42.99-45.09,44.81c-1.03,0.1-2.05,0.15-3.07,0.15  c-17.87,0-32.8-16.04-44.42-47.74c-8.6-23.44-15.37-54.85-19.08-88.44c-2.07-18.78-6.92-33.99-14.01-43.98  c-2.54-3.58-6.22-3.96-7.69-3.96c-1.46,0-5.15,0.38-7.69,3.96c-7.09,9.99-11.94,25.2-14.01,43.98c-3.71,33.59-10.48,65-19.07,88.44  c-11.62,31.7-26.56,47.74-44.43,47.74c-1.02,0-2.04-0.05-3.07-0.15c-18.16-1.82-33.33-16.9-45.09-44.81  c-9.81-23.3-17.4-55.39-22.56-95.37c-0.29-2.28-0.59-4.51-0.9-6.7c-5.35-37.92-20.2-75.62-42.94-109.02  c-34.03-50.01-43.33-111.89-24.87-165.53c14.04-40.8,42.73-70.81,78.7-82.35c68.31-21.9,124.48,6.26,145.93,19.75  c21.45-13.49,77.62-41.65,145.93-19.75c35.96,11.53,64.64,41.53,78.68,82.3C499.08,143.979,489.82,205.839,455.83,255.839z"/>
<path style="fill:#C7C5CC;" d="M455.83,255.839c-22.81,33.56-37.7,71.38-43.04,109.37c-0.3,2.11-0.59,4.26-0.87,6.46  c-5.16,39.98-12.75,72.07-22.56,95.37c-11.76,27.91-26.93,42.99-45.09,44.81c-1.03,0.1-2.05,0.15-3.07,0.15  c-17.87,0-32.8-16.04-44.42-47.74c-8.6-23.44-15.37-54.85-19.08-88.44c-2.07-18.78-6.92-33.99-14.01-43.98  c-2.54-3.58-6.22-3.96-7.69-3.96V27.819c21.45-13.49,77.62-41.65,145.93-19.75c35.96,11.53,64.64,41.53,78.68,82.3  C499.08,143.979,489.82,205.839,455.83,255.839z"/>
<path style="fill:#FFDAA7;" d="M385.9,232.319c-14.1,20.78-23.26,44.61-26.48,68.92l-0.09,0.65v101.39h-30v-97.63  c-8.85-10.99-37.93-43.35-73.33-43.35c-35.16,0-64.51,32.51-73.36,43.41v97.57h-30v-101.59l-0.06-0.46  c-3.21-24.24-12.4-48.11-26.55-69.02c-22.19-32.77-28.18-73.35-16.02-108.54c9.4-27.18,28.66-47.22,52.86-54.98  c42-13.47,77.1,1.82,93.13,11.17c16.03-9.35,51.13-24.64,93.13-11.17c24.22,7.76,43.49,27.82,52.87,55.03  C414.15,158.949,408.13,199.539,385.9,232.319z"/>
<path style="fill:#FFC373;" d="M385.9,232.319c-14.1,20.78-23.26,44.61-26.48,68.92l-0.09,0.65v101.39h-30v-97.63  c-8.85-10.99-37.93-43.35-73.33-43.35V79.859c16.03-9.35,51.13-24.64,93.13-11.17c24.22,7.76,43.49,27.82,52.87,55.03  C414.15,158.949,408.13,199.539,385.9,232.319z"/>
<g>
</g>
<g>
</g>
<g>
</g>
<g>
</g>
<g>
</g>
<g>
</g>
<g>
</g>
<g>
</g>
<g>
</g>
<g>
</g>
<g>
</g>
<g>
</g>
<g>
</g>
<g>
</g>
<g>
</g>
</svg>
